. 
 
http://www.torrenting.com          :     Once & For all ;)


               www . Torrenting . Com 

(((((((((((((= Enjoy No RAR releases =))))))))))))))))))))


...................................NFO:....................................

.                                                                                                     
       
     
     
       
       
     
     
                                         
                                         
                EXVID                    
                                         
         
                                         
         Filled the Archives             
                                         
         
                                         
                With:                    
                                         
         
                                         
                                    
     E240                           
                                    
     SP               (C) 2009      
                                         
     
     
     
                                                                                  
                                                                                   
                   Frantic.1988.iNTERNAL.BDRip.XviD-EXViDiNT                        
                                                                                   
                                                                                  
     
                                                                                               
EXViD aims to iNTERNAL those releases which have been lost in the archives.
EXViD aims to PRE non-internal releases which have poor sources and are likely skipped by others. 
http://www.imdb.com/title/tt0095174/
Subtitles: EN, ES, FR, IT, PT, SV, DA, FI, NO, RO, BG, CS, EL, PL, TH, ZH
Date: 2012.0

Director: Roman Polanski

Genre: Crime | Drama | Mystery

Plot:
In a hotel room in Paris, a doctor comes out of the shower and finds that his wife has 
disappeared. He soon finds himself caught up in a world of intrigue, espionage, gangsters, 
drugs and murder. 

Cast:
Harrison Ford 		... 	Dr. Richard Walker
Betty Buckley 		... 	Sondra Walker
Emmanuelle Seigner 	... 	Michelle
Djiby Soumare 		... 	Taxi Driver
Dominique Virton 	... 	Desk Clerk
Grard Klein 		... 	Gaillard
Stphane D'Audeville 	... 	Bellboy
Laurent Spielvogel 	... 	Hall Porter
Alain Doutey 		... 	Hall Porter
Jacques Ciron 		... 	Le Grand Hotel Manager
Roch Leibovici 		... 	Bellboy 2
Louise Vincent 		... 	Tourist
Patrice Melennec 	... 	Hotel Detective Le Grand Hotel
Ella Jaroszewicz 	... 	Restroom Attendant
Jolle Lagneau 		... 	Florist 

Stats:
Format                                   : AVI
Format/Info                              : Audio Video Interleave
Format profile                           : OpenDML
File size                                : 1.37 GiB
Duration                                 : 1h 59mn
Overall bit rate                         : 1 638 Kbps

Video
ID                                       : 0
Format                                   : MPEG-4 Visual
Format profile                           : Advanced Simple@L5
Format settings, BVOP                    : 2
Format settings, QPel                    : No
Format settings, GMC                     : No warppoints
Format settings, Matrix                  : Default (MPEG)
Codec ID                                 : XVID
Codec ID/Hint                            : XviD
Duration                                 : 1h 59mn
Bit rate                                 : 1 401 Kbps
Width                                    : 640 pixels
Height                                   : 352 pixels
Display aspect ratio                     : 16:9
Frame rate                               : 23.976 fps
Color space                              : YUV
Chroma subsampling                       : 4:2:0
Bit depth                                : 8 bits
Scan type                                : Progressive
Compression mode                         : Lossy
Bits/(Pixel*Frame)                       : 0.259
Stream size                              : 1.17 GiB (85%)
Writing library                          : XviD 64

Audio
ID                                       : 1
Format                                   : MPEG Audio
Format version                           : Version 1
Format profile                           : Layer 3
Mode                                     : Joint stereo
Mode extension                           : MS Stereo
Codec ID                                 : 55
Codec ID/Hint                            : MP3
Duration                                 : 1h 59mn
Bit rate mode                            : Variable
Bit rate                                 : 222 Kbps
Channel(s)                               : 2 channels
Sampling rate                            : 48.0 KHz
Compression mode                         : Lossy
Stream size                              : 143 MiB (15%)
Alignment                                : Aligned on interleaves
Interleave, duration                     : 925 ms (22.18 video frames)
Interleave, preload duration             : 72 ms
Writing library                          : LAME3.98.4


Release notes:
Enjoy!


Looking for:
75TB+ Archives
DUTCH/FLEMiSH Archives
                                                                                                    
Greets: CRBS EPiSODE FiCO FLS iLS KLASSiGER LiPSYNC MADE NODLABS RUNNER SPRiNTER      
   

                                                                    ASCII DONE BY XX^NFO 2oo9